<?xml version="1.0" standalone="no"?>
<!DOCTYPE svg PUBLIC "-//W3C//DTD SVG 20010904//EN"
 "http://www.w3.org/TR/2001/REC-SVG-20010904/DTD/svg10.dtd">
<svg version="1.0" xmlns="http://www.w3.org/2000/svg"
 width="1280.000000pt" height="1280.000000pt" viewBox="0 0 1280.000000 1280.000000"
 preserveAspectRatio="xMidYMid meet">
<metadata>
Created by potrace 1.14, written by Peter Selinger 2001-2017
</metadata>
<g transform="translate(0.000000,1280.000000) scale(0.100000,-0.100000)"
fill="#000000" stroke="none">
<path d="M6492 11247 c-14 -17 -19 -98 -27 -427 -4 -140 -9 -327 -11 -415 -7
-272 -15 -568 -16 -602 0 -18 -3 -33 -7 -33 -29 1 -103 33 -125 55 -19 19 -34
26 -52 22 -16 -3 -24 0 -24 9 0 8 -7 14 -15 14 -8 0 -23 8 -33 18 -22 20 -91
55 -147 74 -22 7 -49 21 -59 31 -11 9 -26 17 -35 17 -8 0 -22 6 -30 14 -30 27
-119 66 -149 66 -17 0 -37 -7 -46 -15 -8 -9 -64 -41 -123 -72 -59 -30 -142
-75 -183 -98 -41 -23 -121 -65 -176 -93 -118 -59 -150 -88 -192 -174 -17 -35
-67 -138 -112 -230 -50 -104 -86 -168 -95 -168 -8 0 -15 -4 -15 -8 0 -5 -17
-14 -37 -20 -72 -20 -178 -47 -193 -48 -8 0 -35 -6 -60 -13 -25 -7 -52 -14
-60 -16 -76 -15 -154 -48 -233 -99 -31 -20 -60 -36 -66 -36 -5 0 -11 -4 -13
-9 -1 -4 -57 -41 -123 -81 -223 -134 -280 -170 -300 -185 -10 -8 -23 -15 -27
-15 -5 0 -14 -5 -21 -11 -7 -5 -44 -30 -83 -55 -69 -43 -71 -46 -92 -112 -12
-37 -24 -80 -28 -97 -4 -16 -8 -32 -9 -35 -3 -13 -16 -67 -19 -85 -7 -36 -56
-239 -66 -277 -9 -33 -22 -44 -93 -86 -87 -52 -185 -115 -203 -130 -6 -6 -26
-18 -44 -27 -19 -10 -40 -23 -47 -31 -7 -7 -39 -27 -70 -45 -32 -18 -88 -52
-124 -76 -37 -23 -72 -43 -78 -43 -6 0 -11 -4 -11 -8 0 -5 -15 -16 -32 -25
-32 -17 -60 -33 -155 -91 -26 -16 -52 -35 -56 -43 -4 -7 -15 -13 -22 -13 -8 0
-15 -4 -15 -9 0 -5 -6 -11 -13 -13 -35 -9 -240 -145 -247 -164 -8 -19 -5 -40
20 -144 0 -3 3 -16 6 -30 3 -14 12 -47 20 -75 8 -27 16 -61 19 -75 17 -93 59
-170 163 -299 15 -19 34 -46 43 -60 22 -35 57 -71 69 -71 6 0 10 -9 10 -19 0
-10 13 -33 29 -50 17 -18 30 -34 30 -36 1 -3 1 -8 1 -12 0 -5 23 -33 50 -63
27 -30 50 -60 50 -67 0 -15 52 -54 103 -77 20 -9 37 -21 37 -27 0 -6 4 -8 9
-4 6 3 13 -10 17 -30 3 -19 12 -35 19 -35 7 0 15 -14 19 -31 3 -17 19 -44 36
-60 16 -17 30 -36 30 -44 0 -7 7 -15 15 -19 8 -3 12 -12 9 -21 -4 -10 0 -15
15 -15 14 0 21 -6 21 -18 0 -11 17 -28 42 -42 24 -13 45 -27 48 -31 12 -17
183 -62 315 -83 68 -11 130 -23 130 -26 0 -1 13 -3 29 -5 15 -2 56 -10 90 -19
85 -20 139 -30 154 -29 6 0 12 -2 12 -6 0 -4 8 -7 18 -8 19 -1 63 -10 102 -20
14 -3 32 -7 40 -8 72 -9 130 -47 130 -86 0 -9 18 -36 40 -59 22 -23 40 -48 40
-56 0 -8 18 -37 39 -64 21 -27 45 -63 52 -80 8 -17 22 -33 31 -36 10 -3 18
-14 18 -25 0 -10 9 -24 20 -31 11 -7 20 -20 20 -29 0 -9 9 -24 19 -33 11 -10
22 -28 25 -42 4 -13 13 -24 21 -24 8 0 19 -9 25 -20 6 -11 9 -20 6 -20 -3 0 3
-19 14 -42 15 -36 19 -80 24 -270 3 -125 9 -240 12 -255 10 -41 33 -71 71 -98
19 -12 34 -26 33 -30 -1 -3 19 -25 45 -47 25 -22 60 -54 79 -72 81 -76 105
-96 115 -96 6 0 11 -7 11 -15 0 -8 4 -15 9 -15 6 0 52 -40 103 -90 51 -49 103
-93 116 -96 12 -3 22 -12 22 -20 0 -8 7 -14 16 -14 8 0 13 -4 9 -9 -3 -6 23
-33 57 -61 82 -67 128 -109 128 -118 1 -4 30 -29 67 -57 36 -27 70 -56 77 -63
64 -71 132 -132 148 -132 4 0 8 -6 8 -13 0 -13 34 -43 85 -77 17 -11 26 -20
21 -20 -4 0 15 -21 44 -48 29 -26 81 -74 115 -107 34 -33 72 -69 86 -79 24
-19 145 -124 184 -159 25 -23 136 -121 186 -165 60 -53 81 -109 84 -232 1 -58
6 -231 9 -385 9 -328 10 -345 26 -374 24 -45 24 -35 35 384 9 354 12 478 19
700 14 413 20 940 12 954 -4 5 -2 12 3 15 5 3 10 164 11 358 5 744 3 4039 -3
4558 -10 861 -17 1333 -21 1339 -6 10 -17 352 -22 696 -6 402 -10 534 -16 541
-3 2 -10 -2 -16 -9z m-629 -1423 c20 -10 37 -21 37 -25 0 -4 12 -12 28 -18 15
-6 50 -24 77 -39 119 -64 314 -169 358 -191 26 -13 52 -32 57 -42 12 -22 14
-175 7 -554 -3 -159 -6 -398 -7 -530 -1 -132 -4 -243 -6 -247 -6 -9 -74 31
-74 43 0 5 -15 15 -34 23 -18 8 -67 39 -109 70 -42 31 -83 56 -91 56 -9 0 -16
6 -16 13 0 7 -20 23 -45 35 -25 12 -45 26 -45 31 0 5 -13 14 -29 21 -16 6 -37
19 -47 29 -11 9 -59 43 -109 75 -49 32 -92 62 -95 67 -3 4 -55 41 -115 81 -61
40 -123 84 -138 98 -16 14 -32 25 -35 26 -24 2 -92 38 -92 48 0 7 -17 22 -37
34 -21 12 -49 33 -62 47 -13 14 -28 25 -35 25 -11 0 -30 13 -78 53 -12 9 -27
17 -34 17 -7 0 -17 8 -22 18 -9 17 2 46 49 129 83 145 139 253 139 269 0 8 4
14 9 14 5 0 14 14 21 30 7 17 17 30 22 30 5 0 7 4 4 9 -11 17 64 71 172 125
118 58 236 122 266 142 24 16 59 12 109 -12z m-938 -847 c23 -24 151 -118 193
-142 17 -11 32 -23 32 -27 0 -4 5 -8 10 -8 6 0 16 -5 23 -10 32 -28 163 -120
171 -120 6 0 19 -9 30 -19 24 -21 221 -156 272 -185 18 -11 31 -22 29 -26 -2
-4 8 -13 23 -20 25 -13 131 -87 142 -101 3 -3 29 -19 57 -35 29 -16 53 -35 53
-42 0 -7 4 -11 9 -8 5 3 37 -16 72 -42 105 -80 248 -182 254 -182 7 0 62 -39
88 -62 10 -9 22 -31 26 -50 6 -27 8 -532 2 -781 -1 -58 -1 -59 -28 -53 -88 18
-128 21 -498 42 -49 2 -126 7 -170 9 -44 2 -98 6 -120 9 -43 5 -340 20 -365
18 -8 0 -103 6 -210 13 -107 8 -247 16 -311 19 -63 3 -122 8 -131 11 -13 5
-15 29 -14 162 0 85 -2 157 -6 159 -4 3 -5 19 -2 37 9 52 10 320 2 344 -4 12
-3 25 2 28 5 3 6 16 1 28 -6 17 -8 967 -2 1000 0 4 11 7 24 7 12 0 63 11 112
24 108 28 204 29 230 3z m-539 -191 c-3 -55 -8 -213 -12 -351 -4 -137 -7 -251
-8 -252 -3 -5 -199 99 -223 119 -6 5 -83 45 -170 90 -87 44 -162 83 -168 87
-5 5 -22 11 -36 14 -14 4 -38 16 -53 28 l-28 22 44 23 c121 66 237 121 242
116 3 -3 6 1 6 9 0 8 17 21 38 28 55 20 315 150 331 166 7 7 20 11 27 8 11 -4
13 -26 10 -107z m-603 -486 c59 -28 124 -57 145 -64 57 -20 51 -38 -25 -70
-37 -16 -90 -39 -118 -52 -42 -19 -71 -31 -95 -39 -31 -11 -54 -21 -108 -46
-54 -25 -63 -27 -58 -12 53 173 86 292 86 309 0 12 3 29 6 38 5 14 9 14 33 2
14 -8 74 -38 134 -66z m554 -499 c10 -1 11 -52 8 -221 -2 -122 -7 -225 -10
-230 -11 -17 -65 16 -65 39 0 6 -3 10 -7 10 -23 -4 -42 3 -63 24 -14 12 -41
29 -61 38 -19 9 -54 34 -77 55 -59 56 -69 64 -101 77 -15 7 -28 17 -27 22 1 6
-9 11 -21 13 -13 2 -28 11 -35 21 -7 9 -41 34 -76 55 -34 21 -69 45 -78 53
-14 15 -14 17 0 25 9 5 129 10 266 12 138 2 253 5 256 8 3 3 22 4 42 3 20 -2
43 -4 49 -4z m-893 -31 c14 -5 26 -16 26 -25 0 -8 5 -15 11 -15 6 0 23 -12 39
-27 45 -44 104 -96 143 -126 32 -24 51 -60 30 -55 -5 1 -20 -4 -35 -10 -15 -6
-67 -28 -115 -48 -48 -20 -133 -54 -188 -76 -55 -21 -136 -54 -180 -73 -112
-48 -138 -58 -155 -61 -8 -2 -20 -10 -26 -18 -6 -9 -20 -16 -30 -16 -10 0 -37
-7 -60 -15 -52 -18 -58 -17 -127 28 -31 20 -61 37 -65 37 -17 0 -74 68 -63 75
6 3 39 21 74 39 34 17 113 62 176 99 62 37 116 67 120 67 3 0 12 9 19 20 7 11
19 20 28 20 16 0 75 28 84 40 3 3 31 22 64 41 32 19 75 44 95 56 43 26 93 52
103 53 4 0 18 -4 32 -10z m505 -428 c20 -16 46 -34 59 -41 12 -6 22 -17 22
-24 0 -7 20 -26 43 -44 23 -17 62 -50 87 -72 24 -23 50 -41 57 -41 7 0 13 -6
13 -13 0 -8 11 -19 24 -26 13 -7 29 -24 35 -38 13 -28 15 -63 3 -63 -9 0 -175
-209 -324 -409 -51 -69 -107 -133 -123 -142 -17 -10 -50 -20 -75 -22 -25 -3
-52 -7 -60 -10 -8 -3 -42 -8 -75 -12 -33 -4 -71 -9 -85 -11 -40 -5 -132 -16
-170 -19 -73 -5 -253 -28 -310 -39 -99 -19 -232 -26 -247 -14 -7 6 -13 7 -13
2 -1 -5 -7 6 -15 23 -8 18 -19 38 -25 45 -15 18 -209 327 -227 361 -20 39 -14
56 28 81 20 11 93 61 161 110 69 48 136 94 149 102 37 20 142 67 158 70 41 8
73 18 155 50 49 20 98 36 108 37 10 1 18 5 18 9 0 4 3 7 8 6 4 0 16 3 27 7 47
19 121 47 130 50 6 1 24 8 40 14 17 7 37 14 45 16 27 6 144 46 179 62 91 41
144 40 200 -5z m996 -347 c83 -5 337 -16 470 -21 61 -3 157 -6 215 -9 58 -2
159 -6 225 -9 66 -2 170 -7 230 -10 61 -4 154 -9 209 -11 54 -3 103 -8 107
-11 6 -3 9 -185 9 -416 -1 -451 0 -446 -62 -489 -18 -13 -53 -41 -76 -64 -76
-70 -96 -88 -186 -170 -49 -44 -104 -94 -122 -111 -18 -17 -66 -60 -105 -95
-40 -35 -91 -82 -114 -104 -23 -22 -73 -67 -110 -100 -101 -88 -135 -122 -135
-133 0 -6 -10 -14 -22 -18 -24 -7 -108 -88 -108 -104 0 -6 -6 -10 -12 -10 -13
0 -29 -14 -168 -142 -36 -33 -96 -88 -134 -122 -37 -33 -95 -86 -127 -116 -32
-30 -74 -69 -93 -87 -19 -18 -38 -38 -43 -45 -4 -7 -23 -24 -42 -37 -33 -23
-48 -19 -52 14 -2 14 -5 55 -13 145 -22 254 -25 268 -130 482 -47 97 -86 179
-86 181 0 3 -15 38 -34 79 -65 140 -86 189 -86 198 0 6 -4 10 -10 10 -5 0 -10
6 -10 13 0 15 -73 182 -154 349 -72 150 -136 298 -129 298 3 0 1 6 -5 13 -12
14 -5 57 9 57 9 0 153 148 177 182 9 12 23 29 31 38 9 9 57 60 106 114 126
138 135 147 184 201 75 82 62 80 396 60z m-1084 -703 c6 -2 15 -25 24 -58 2
-6 11 -21 21 -32 10 -12 32 -54 49 -94 17 -40 57 -126 89 -192 31 -65 60 -131
63 -147 5 -27 4 -28 -28 -24 -19 3 -45 7 -59 10 -14 3 -41 8 -60 11 -19 3 -39
9 -45 12 -5 4 -14 7 -20 8 -28 5 -73 13 -95 19 -14 3 -38 7 -55 9 -16 3 -46 7
-65 11 -43 7 -85 14 -125 21 -16 2 -52 9 -80 14 -27 5 -63 11 -80 13 -16 3
-67 12 -112 21 -45 10 -92 18 -105 20 -58 6 -74 17 -95 64 -38 86 -38 109 -1
103 7 -1 207 52 248 65 8 3 15 5 15 4 0 -1 24 8 53 19 28 11 52 17 52 13 0 -4
4 -2 8 4 4 7 23 14 42 17 72 11 100 20 100 32 0 10 54 31 103 41 4 1 8 2 10 3
1 2 20 5 42 7 21 3 41 6 42 8 3 3 50 1 64 -2z m2550 -719 c2 -462 9 -1236 15
-1698 6 -468 7 -643 5 -795 0 -47 1 -100 3 -117 2 -18 -1 -33 -7 -33 -5 0 -34
25 -64 55 -29 31 -58 53 -63 50 -6 -3 -10 -1 -10 5 0 6 -10 15 -23 21 -13 6
-27 20 -32 32 -6 12 -23 28 -40 37 -16 8 -34 21 -38 28 -5 7 -25 27 -44 45
-20 18 -61 55 -91 82 -30 28 -68 61 -85 75 -16 14 -51 44 -76 67 -100 90 -116
103 -133 109 -10 3 -18 11 -18 17 0 13 -63 67 -78 67 -5 0 -12 9 -15 19 -3 11
-26 35 -52 53 -26 18 -84 67 -129 109 -44 42 -105 96 -134 120 -30 24 -73 63
-98 85 -24 23 -44 40 -44 39 0 -2 -24 20 -53 48 -30 29 -84 79 -122 112 -86
76 -115 106 -115 123 0 8 50 63 110 124 61 60 110 114 110 118 0 5 6 10 14 12
12 3 246 227 338 324 20 21 56 56 80 76 33 28 205 197 303 297 6 5 49 45 96
88 47 43 169 162 270 265 101 102 192 186 202 187 16 1 17 -17 18 -246z"/>
<path d="M5732 9554 c-13 -9 -29 -17 -36 -18 -7 -1 -24 -8 -37 -17 -13 -8 -37
-21 -52 -29 -41 -21 -85 -68 -92 -99 -11 -52 -15 -67 -35 -135 -11 -38 -17
-73 -14 -77 3 -5 -1 -12 -9 -14 -7 -3 -13 -15 -12 -26 2 -23 44 -79 60 -79 6
0 82 -48 170 -107 89 -60 172 -114 185 -121 14 -7 61 -40 105 -73 75 -55 159
-98 171 -87 9 10 14 54 19 188 4 74 7 151 9 170 1 19 -1 47 -5 61 -6 24 -88
141 -115 164 -6 6 -25 30 -41 55 -17 25 -40 53 -52 64 -11 10 -18 23 -15 27 3
5 1 9 -4 9 -5 0 -26 26 -48 58 -69 102 -102 121 -152 86z"/>
<path d="M8766 9685 c-3 -8 -11 -15 -18 -15 -13 -1 -138 -163 -128 -166 3 0 0
-7 -7 -15 -9 -12 -9 -20 0 -36 7 -12 23 -43 37 -69 41 -80 54 -88 136 -89 l73
-1 20 42 c12 23 28 47 36 54 8 6 19 27 25 45 13 38 4 61 -58 149 -67 95 -105
129 -116 101z"/>
<path d="M8454 9348 c-49 -67 -70 -110 -79 -161 -5 -32 -5 -32 84 -74 121 -57
121 -57 136 -5 7 24 25 68 40 97 29 60 28 63 -24 129 -31 38 -81 76 -101 76
-6 0 -31 -28 -56 -62z"/>
<path d="M9011 9403 c-17 -7 -72 -61 -94 -92 -19 -28 -14 -65 13 -96 20 -22
42 -93 34 -107 -3 -4 2 -11 10 -14 9 -3 16 -12 16 -20 0 -22 15 -17 91 26 39
22 74 40 77 40 4 0 15 6 24 13 15 12 15 16 1 48 -33 74 -59 121 -75 139 -10
11 -18 23 -18 28 0 14 -35 42 -51 41 -8 0 -20 -3 -28 -6z"/>
<path d="M8740 9198 c-56 -49 -85 -112 -93 -195 -4 -48 -5 -47 43 -32 44 13
154 13 197 0 l33 -10 -5 50 c-9 84 -75 191 -126 204 -17 4 -32 -1 -49 -17z"/>
<path d="M10275 9099 c-60 -11 -150 -47 -168 -67 -16 -18 -37 -105 -37 -150 0
-18 14 -41 45 -71 43 -43 45 -44 93 -38 69 8 140 43 158 79 17 33 32 247 18
249 -32 6 -75 5 -109 -2z"/>
<path d="M7164 9076 c-3 -14 -3 -54 1 -89 4 -34 8 -76 9 -94 5 -53 59 -115 86
-98 6 3 10 2 10 -3 0 -5 6 -9 13 -10 6 0 23 -3 37 -6 70 -16 72 -16 121 25 26
23 49 49 51 58 5 27 -31 155 -50 173 -20 21 -131 53 -214 63 -56 7 -57 7 -64
-19z"/>
<path d="M8293 9055 c-10 -42 -10 -163 -1 -195 3 -8 8 -27 12 -41 8 -30 37
-48 81 -53 17 -2 30 -5 30 -6 0 -1 31 -2 68 -3 l69 -2 34 69 35 69 -28 31
c-66 74 -127 122 -165 131 -15 4 -30 16 -33 26 -5 15 -10 17 -26 9 -13 -7 -19
-7 -19 0 0 5 -10 10 -23 10 -20 0 -25 -7 -34 -45z"/>
<path d="M9144 9065 c-96 -47 -185 -122 -200 -167 -7 -22 20 -80 55 -117 23
-24 32 -27 76 -25 186 11 197 21 197 184 -1 106 -15 155 -47 155 -11 1 -47
-13 -81 -30z"/>
<path d="M9873 9033 c-90 -31 -155 -65 -149 -77 26 -59 59 -144 59 -153 0 -7
6 -13 14 -13 7 0 13 -7 13 -15 0 -13 4 -13 23 -3 12 7 24 15 27 18 9 9 85 42
105 46 27 5 55 41 56 73 2 58 -3 117 -12 133 -13 23 -52 21 -136 -9z"/>
<path d="M7536 9028 c-3 -13 -6 -51 -6 -84 0 -47 5 -67 21 -88 11 -14 24 -24
28 -22 4 3 44 -13 90 -35 45 -21 85 -39 87 -39 2 0 4 7 4 15 0 7 16 50 35 94
19 43 35 82 35 85 0 3 -13 12 -30 21 -16 9 -30 12 -30 8 0 -4 -9 3 -20 15 -12
12 -25 22 -30 22 -13 0 -17 1 -69 17 -69 20 -108 17 -115 -9z"/>
<path d="M9570 8914 c-25 -19 -64 -63 -87 -97 -35 -51 -42 -68 -38 -96 3 -19
11 -41 18 -50 34 -43 42 -51 54 -51 7 0 13 -7 13 -16 0 -8 5 -12 10 -9 6 3 10
-1 10 -9 0 -8 9 -17 20 -21 23 -7 88 4 96 16 3 5 13 9 22 9 37 0 46 16 43 77
-4 124 -57 275 -97 281 -10 1 -39 -14 -64 -34z"/>
<path d="M7859 8857 c-26 -68 -32 -97 -33 -171 l-1 -89 78 -25 78 -25 65 67
c81 84 84 109 22 188 -51 65 -74 87 -113 113 -55 35 -61 32 -96 -58z"/>
<path d="M8745 8918 c-34 -19 -122 -117 -129 -142 -5 -19 5 -34 50 -80 31 -31
60 -56 65 -56 5 0 9 -10 9 -22 1 -25 48 -67 59 -51 3 5 16 26 29 46 13 20 28
37 33 37 6 0 7 5 4 10 -3 6 -1 10 4 10 6 0 11 5 11 11 0 11 25 39 35 39 10 0
35 27 35 38 0 5 -11 22 -25 38 -14 16 -25 32 -25 36 0 4 -21 28 -46 53 -48 46
-73 53 -109 33z"/>
<path d="M7520 8750 c-31 -4 -36 -9 -40 -40 -11 -73 21 -173 70 -222 16 -15
41 -11 42 8 2 21 11 44 17 44 3 0 20 13 36 28 17 15 47 36 68 45 20 10 37 24
37 31 0 44 -157 117 -230 106z"/>
<path d="M9909 8734 c-28 -13 -57 -30 -65 -39 -9 -8 -19 -15 -24 -15 -17 0
-20 -34 -4 -51 9 -10 19 -18 23 -17 25 3 45 -7 80 -41 23 -22 41 -43 41 -48 0
-5 9 -16 19 -25 18 -15 20 -14 41 11 51 63 72 139 56 208 -6 27 -13 32 -44 37
-55 7 -68 5 -123 -20z"/>
<path d="M8240 8743 c-68 -21 -166 -111 -206 -190 -16 -31 -30 -62 -31 -68
-15 -58 -20 -106 -18 -151 3 -56 21 -114 36 -114 5 0 9 -5 9 -10 0 -15 43 -56
67 -64 15 -5 29 4 59 38 79 88 108 138 138 238 24 77 7 75 126 11 71 -39 179
-69 259 -72 l64 -3 -5 74 c-5 79 -24 118 -91 190 -31 32 -161 106 -178 101 -4
-1 -22 3 -40 8 -37 12 -164 20 -189 12z"/>
<path d="M9157 8735 c-26 -7 -51 -13 -55 -14 -36 -7 -113 -38 -137 -55 -58
-40 -105 -85 -105 -100 0 -5 -6 -17 -13 -25 -22 -25 -40 -107 -33 -145 5 -28
11 -35 37 -38 24 -4 116 7 172 20 49 11 69 18 107 38 25 12 55 32 67 43 30 28
41 26 48 -6 4 -16 13 -44 22 -63 24 -56 117 -200 129 -200 6 0 19 -9 29 -20
10 -11 26 -20 36 -20 25 0 77 74 92 127 7 27 14 38 19 30 5 -8 8 -4 8 11 0 16
-4 21 -12 16 -9 -6 -9 -3 1 9 8 10 10 24 5 34 -9 23 -9 21 -18 70 -4 24 -12
45 -17 49 -5 3 -9 14 -9 25 0 10 -4 19 -9 19 -5 0 -12 11 -15 25 -4 14 -13 25
-21 25 -8 0 -15 6 -15 14 0 8 -18 31 -40 52 -22 21 -40 44 -40 51 0 40 -127
55 -233 28z"/>
<path d="M10252 8740 c-55 -8 -70 -24 -88 -96 -9 -32 -22 -66 -29 -74 -16 -19
-13 -60 6 -71 9 -4 26 -10 40 -13 47 -10 71 -15 92 -21 12 -4 30 -9 40 -12 13
-3 22 5 34 34 9 21 17 43 19 48 1 6 7 29 13 52 20 73 23 117 9 135 -15 19 -72
27 -136 18z"/>
<path d="M7215 8730 l-50 -5 0 -50 c-1 -27 4 -70 11 -95 14 -54 55 -140 66
-140 5 0 24 6 42 14 19 8 53 17 77 20 78 11 83 13 87 24 2 7 -1 12 -7 12 -6 0
-11 8 -11 18 0 10 -3 22 -7 26 -4 3 -8 12 -10 19 -12 57 -43 122 -66 139 -15
11 -27 17 -27 15 0 -3 -12 -2 -27 1 -16 4 -50 5 -78 2z"/>
<path d="M7682 8530 c-27 -43 -32 -194 -8 -219 8 -7 61 -21 118 -31 56 -10
113 -20 124 -23 21 -5 22 -4 17 116 -3 67 -10 128 -15 134 -15 18 -73 32 -154
37 -60 3 -72 1 -82 -14z"/>
<path d="M9707 8543 c-2 -1 -15 -4 -31 -7 -16 -3 -34 -10 -39 -15 -5 -5 -11
-64 -13 -130 -4 -137 -3 -139 62 -122 36 9 94 19 153 26 27 3 64 41 55 56 -2
5 0 18 6 29 6 11 7 20 3 20 -4 0 -9 17 -10 38 -3 56 -8 71 -27 93 -14 17 -27
20 -87 17 -39 -1 -71 -4 -72 -5z"/>
<path d="M7458 8435 c-2 -2 -16 -6 -33 -8 -37 -7 -71 -15 -93 -21 -9 -3 -36
-10 -59 -16 -48 -12 -55 -32 -25 -66 9 -10 30 -37 47 -59 62 -84 129 -131 169
-121 31 8 166 104 166 119 0 26 -29 119 -41 134 -7 8 -25 19 -39 25 -25 10
-86 18 -92 13z"/>
<path d="M10077 8434 c-1 -1 -22 -3 -47 -5 -67 -4 -77 -12 -90 -75 -20 -94 -4
-120 106 -174 44 -21 73 -30 89 -26 36 9 135 112 166 173 18 36 18 36 -4 59
-12 13 -32 24 -44 24 -13 0 -23 5 -23 11 0 5 -3 8 -7 6 -5 -3 -39 -2 -76 2
-37 4 -69 6 -70 5z"/>
<path d="M8754 8415 c-3 -8 -4 -20 -2 -27 3 -7 7 -1 10 15 6 29 1 36 -8 12z"/>
<path d="M8729 8278 c0 -28 -8 -178 -12 -240 -1 -10 -5 -18 -9 -18 -4 0 -8 -9
-8 -20 0 -11 -4 -20 -8 -20 -13 0 -12 -42 1 -54 13 -12 156 -14 175 -2 8 5 7
20 -3 54 -18 59 -28 172 -24 262 0 20 -6 48 -12 55 -3 3 -27 7 -52 11 l-47 5
-1 -33z"/>
<path d="M9732 8229 c-66 -9 -157 -54 -188 -95 -13 -17 -24 -34 -24 -37 0 -30
176 -135 255 -153 49 -10 179 -11 193 -1 6 5 12 6 12 3 0 -4 36 12 80 36 73
39 80 45 75 68 -4 13 -16 31 -27 39 -12 8 -30 24 -41 37 -10 12 -31 25 -45 29
-14 3 -31 12 -36 20 -12 14 -123 51 -171 57 -16 2 -54 0 -83 -3z"/>
<path d="M7725 8222 c-44 -7 -145 -46 -145 -56 0 -5 -3 -6 -6 -3 -6 6 -47 -13
-79 -35 -25 -18 -61 -55 -71 -74 -11 -18 -6 -24 45 -56 80 -51 142 -70 226
-67 38 2 75 6 80 10 6 3 23 9 39 13 48 12 149 63 186 94 l35 30 -19 33 c-32
54 -49 70 -96 91 -42 18 -146 29 -195 20z"/>
<path d="M8114 8085 c-12 -8 -21 -23 -20 -34 2 -40 207 -181 263 -181 10 0 31
12 46 26 28 26 28 26 8 43 -23 20 -83 47 -123 55 -16 4 -28 13 -28 21 0 8 -6
15 -13 15 -7 0 -30 16 -50 35 -41 39 -53 42 -83 20z"/>
<path d="M9368 8077 c-48 -46 -165 -116 -195 -117 -5 0 -16 -7 -26 -15 -18
-13 -17 -15 9 -45 23 -25 35 -31 64 -29 34 3 63 13 84 30 10 9 28 22 114 88
18 13 32 30 32 37 0 8 5 14 12 14 6 0 1 11 -12 25 -25 27 -61 32 -82 12z"/>
<path d="M7327 7623 c-2 -1 -76 -3 -165 -5 -90 -1 -168 -5 -174 -9 -14 -9 43
-39 76 -39 13 0 60 -19 104 -41 l80 -42 12 -76 c13 -75 16 -186 23 -701 4
-342 -2 -361 -116 -397 -35 -11 -94 -21 -136 -22 -41 0 -77 -3 -80 -6 -8 -9
14 -25 40 -30 13 -3 38 -8 54 -11 70 -15 951 2 1040 19 69 14 83 16 88 18 1 0
12 2 24 5 77 14 242 84 333 142 74 46 167 142 191 198 21 46 27 133 13 176
-10 32 -54 88 -69 88 -6 0 -20 9 -30 20 -16 18 -56 35 -101 44 -10 2 -30 7
-44 10 -55 12 -108 18 -173 19 -63 1 -68 2 -65 21 2 12 7 19 12 18 5 -2 12 0
15 5 3 4 26 18 51 31 92 46 125 67 169 109 24 24 47 43 51 43 8 0 43 47 64 87
44 87 13 180 -90 263 -22 18 -117 50 -172 57 -35 5 -1021 11 -1025 6z m638
-69 c109 -18 281 -94 271 -121 -3 -7 -2 -13 3 -13 19 0 61 -118 62 -177 2 -71
-12 -96 -76 -142 -83 -60 -159 -73 -409 -73 -146 0 -182 3 -190 14 -7 9 -12
102 -14 240 l-4 226 49 15 c61 20 94 26 167 32 32 2 60 6 63 9 3 2 15 2 26 0
12 -3 36 -7 52 -10z m-213 -593 c10 5 18 6 18 2 0 -9 127 -10 136 0 3 3 16 2
28 -2 11 -4 31 -6 44 -5 12 0 22 -3 22 -9 0 -6 3 -8 6 -5 10 11 147 -32 207
-64 63 -34 134 -106 162 -163 22 -47 21 -149 -1 -204 -23 -59 -112 -130 -182
-146 -9 -3 -35 -9 -57 -15 -110 -29 -359 -21 -402 13 -7 5 -13 7 -13 4 0 -3
-21 3 -47 13 -43 16 -49 22 -55 56 -3 22 -5 147 -5 279 l2 240 39 2 c21 1 41
5 44 7 2 3 12 1 21 -3 9 -6 23 -5 33 0z"/>
<path d="M10317 7624 c-5 -6 -844 -26 -983 -24 -41 1 -80 1 -86 1 -7 -1 -76
-3 -153 -5 -161 -4 -194 -24 -70 -42 64 -9 186 -47 209 -65 36 -28 49 -93 46
-229 0 -8 1 -33 3 -55 2 -22 -1 -46 -6 -52 -5 -7 -6 -13 -1 -13 5 0 9 -27 9
-60 0 -33 -4 -60 -9 -60 -5 0 -4 -6 1 -12 5 -7 7 -38 6 -68 -4 -67 -4 -47 0
-212 2 -91 -1 -138 -8 -138 -7 0 -7 -3 0 -8 12 -8 13 -121 1 -140 -4 -7 -3
-12 3 -12 6 0 8 -6 6 -12 -2 -7 -6 -28 -9 -47 -3 -18 -9 -38 -14 -43 -22 -22
-172 -49 -295 -52 -49 -1 -51 -17 -3 -40 36 -18 68 -19 540 -18 744 0 966 5
977 23 12 19 49 117 49 130 0 6 10 43 22 82 12 40 21 75 20 80 -1 4 3 7 10 7
6 0 9 3 6 6 -4 3 0 21 8 40 14 34 12 54 -6 54 -4 0 -50 -34 -102 -76 -51 -42
-106 -85 -121 -97 -15 -12 -37 -30 -49 -39 -11 -10 -29 -20 -39 -23 -11 -4
-19 -10 -19 -14 0 -17 -163 -75 -244 -87 -17 -3 -111 -7 -208 -11 l-178 -6 -1
39 c0 22 -2 157 -4 302 l-4 262 47 1 c533 6 590 9 593 27 12 66 -10 79 -135
81 -128 2 -204 8 -261 21 -28 7 -61 14 -73 16 -13 3 -34 11 -46 19 -13 8 -26
12 -29 8 -4 -3 -7 -1 -7 5 0 7 -6 12 -14 12 -20 0 -85 168 -92 237 -3 31 -7
61 -10 65 -3 4 -2 8 3 8 4 0 8 29 8 65 -1 39 4 70 11 76 6 5 54 9 105 9 272 1
452 -35 525 -102 14 -13 38 -50 55 -83 37 -73 43 -80 57 -63 11 14 72 245 72
276 0 33 -23 52 -68 55 -23 2 -43 2 -45 1z"/>
<path d="M9315 5992 c-1 -2 -69 -5 -151 -7 -82 -2 -152 -4 -156 -4 -3 -1 -5
-9 -4 -18 2 -11 16 -20 38 -25 58 -12 145 -55 157 -76 6 -12 13 -36 15 -54 3
-18 6 -33 7 -33 10 0 12 -178 9 -746 l-1 -277 -28 -44 c-16 -25 -49 -57 -74
-73 -28 -18 -45 -36 -44 -47 1 -19 5 -21 52 -19 17 0 118 1 225 2 107 1 207 4
223 6 34 7 35 26 2 69 -21 28 -43 69 -50 97 -2 4 -3 8 -4 10 -13 15 -20 375
-10 460 3 26 2 47 -3 47 -4 0 -4 10 1 23 4 12 6 28 4 35 -3 6 0 12 6 12 6 0
11 -4 11 -9 0 -5 9 -11 20 -14 11 -3 22 -17 26 -33 4 -16 32 -54 62 -84 30
-30 61 -65 69 -77 9 -13 21 -23 28 -23 7 0 16 -11 19 -25 4 -14 17 -30 29 -36
12 -6 32 -27 45 -47 23 -37 74 -96 156 -182 24 -25 50 -59 59 -76 9 -17 32
-41 51 -55 20 -13 36 -27 36 -31 0 -5 9 -8 20 -8 11 0 20 -4 20 -9 0 -18 138
-41 260 -42 110 -2 153 7 112 22 -12 5 -22 15 -22 23 0 7 -11 17 -25 20 -14 4
-56 36 -93 71 -37 36 -70 65 -73 65 -4 0 -9 9 -12 20 -3 11 -12 20 -20 20 -9
0 -17 7 -19 15 -4 20 -160 203 -178 210 -9 3 -23 17 -32 32 -9 16 -35 48 -58
73 -23 25 -49 57 -58 73 -9 15 -20 27 -24 27 -4 0 -8 6 -8 14 0 8 30 30 68 49
37 19 92 47 122 63 74 39 188 155 227 231 28 55 31 69 29 139 -4 112 -24 142
-129 194 -46 23 -104 43 -132 46 -50 6 -794 12 -800 6z m464 -68 c23 -2 55 -9
86 -18 28 -8 63 -26 76 -38 8 -8 29 -24 46 -36 18 -13 32 -26 32 -30 -2 -14
14 -52 21 -52 25 0 44 -161 28 -230 -5 -19 -10 -41 -12 -48 -4 -22 -80 -93
-118 -112 -30 -14 -55 -17 -125 -14 -98 4 -110 6 -179 28 -90 30 -102 37 -110
64 -4 15 -8 120 -9 234 -2 229 -6 216 60 224 11 1 21 3 23 4 1 2 7 4 12 5 6 1
11 3 13 5 1 1 17 4 35 7 19 2 44 8 55 12 12 5 26 6 31 4 4 -3 20 -7 35 -9z"/>
<path d="M8235 5982 c-1 -2 -178 -5 -391 -8 -392 -5 -796 -11 -846 -13 -56 -2
-16 -26 83 -50 55 -13 102 -28 105 -33 3 -4 14 -8 24 -8 21 0 48 -34 55 -69 3
-11 8 -31 11 -43 3 -13 7 -246 8 -518 1 -465 0 -498 -17 -524 -23 -35 -72 -56
-145 -62 -31 -2 -77 -6 -102 -8 -93 -8 -104 -33 -24 -54 36 -10 139 -14 384
-14 462 -1 1041 8 1063 15 9 4 23 9 30 11 19 6 105 262 122 363 10 63 -10 51
-179 -100 -17 -15 -39 -30 -48 -33 -10 -3 -18 -9 -18 -14 0 -15 -224 -118
-295 -135 -73 -18 -209 -30 -335 -30 -73 0 -75 1 -77 25 -6 69 -13 243 -17
403 l-5 177 57 -1 c158 -3 554 11 572 21 25 13 26 55 3 65 -10 4 -47 9 -83 11
-256 14 -291 17 -308 28 -5 3 -24 8 -43 11 -54 9 -66 14 -101 43 -115 96 -122
122 -109 438 l1 31 163 -3 c166 -4 193 -6 262 -18 54 -10 199 -59 204 -69 1
-4 11 -16 20 -25 25 -25 51 -69 51 -87 0 -29 31 -78 42 -67 11 11 36 93 71
230 29 113 26 117 -92 117 -51 0 -94 -1 -96 -3z"/>
<path d="M9153 4098 c-2 -5 -9 -6 -14 -3 -14 9 -158 -33 -190 -55 -15 -11 -32
-20 -38 -20 -6 0 -11 -4 -11 -10 0 -5 -5 -10 -10 -10 -19 0 -72 -62 -91 -107
-20 -47 -26 -92 -16 -130 20 -80 172 -176 315 -199 77 -13 279 -8 307 7 6 3
29 11 53 19 31 10 42 19 43 34 1 12 3 52 5 90 3 72 23 116 51 116 12 0 14 3 6
11 -12 12 -218 18 -230 6 -4 -5 1 -15 11 -23 11 -8 21 -22 23 -32 7 -33 6
-172 0 -179 -4 -3 -51 -7 -105 -7 -179 -2 -293 55 -323 160 -48 170 57 286
261 286 47 0 96 -2 110 -4 49 -10 107 -39 119 -61 7 -12 23 -30 37 -40 l24
-18 1 33 c3 95 -5 113 -54 122 -18 3 -43 9 -57 12 -39 9 -221 10 -227 2z"/>
<path d="M7261 4086 c-6 -7 -6 -27 -1 -52 8 -34 16 -298 10 -314 -1 -3 -3 -21
-5 -40 -1 -19 -3 -42 -4 -51 0 -8 -10 -25 -21 -37 -12 -12 -19 -22 -18 -23 13
-4 562 -3 567 1 14 10 52 111 45 121 -4 7 -16 1 -33 -15 -54 -52 -105 -66
-243 -66 -139 0 -157 7 -159 58 -2 67 1 329 4 347 2 11 21 30 43 42 48 28 38
32 -84 37 -60 2 -95 -1 -101 -8z"/>
<path d="M8207 4094 c-1 -2 -17 -6 -36 -9 -51 -9 -168 -72 -206 -111 -58 -59
-73 -169 -34 -234 61 -100 164 -162 290 -175 19 -2 36 -4 39 -5 7 -3 145 -2
145 1 0 1 9 3 20 5 47 7 70 15 124 45 133 74 180 187 124 306 -26 57 -92 123
-123 123 -11 0 -20 4 -20 9 0 22 -106 45 -213 46 -59 1 -108 0 -110 -1z m192
-48 c46 -4 59 -10 83 -38 15 -18 28 -38 28 -45 0 -7 9 -17 19 -23 18 -9 20
-19 16 -104 -2 -57 -9 -106 -18 -123 -31 -58 -99 -101 -171 -107 -24 -2 -48
-6 -52 -8 -19 -11 -109 15 -167 47 -55 31 -85 88 -88 168 -2 46 3 67 31 120
18 35 40 68 49 74 13 8 114 41 144 47 9 2 53 -1 126 -8z"/>
<path d="M10015 4082 c-6 -4 -31 -38 -56 -77 -25 -38 -59 -90 -75 -114 -16
-24 -38 -59 -49 -77 -11 -19 -28 -43 -37 -54 -10 -11 -18 -24 -19 -28 -1 -17
-68 -99 -95 -117 -51 -34 -44 -40 53 -45 l92 -5 -21 22 c-14 15 -18 28 -13 43
4 13 8 29 9 36 3 18 40 52 68 63 23 8 234 5 274 -4 22 -5 56 -52 66 -91 3 -11
-1 -29 -8 -39 -8 -10 -14 -21 -14 -24 0 -3 52 -6 115 -6 63 0 115 3 115 6 0
11 -52 58 -71 64 -10 4 -19 14 -19 23 0 10 -20 47 -45 84 -25 37 -45 72 -45
78 0 5 -3 10 -8 10 -4 0 -18 20 -32 45 -14 25 -28 45 -31 45 -4 0 -17 19 -28
43 -25 51 -87 127 -104 127 -7 0 -17 -4 -22 -8z m31 -172 c15 -27 31 -50 36
-50 4 0 8 -5 8 -12 0 -6 7 -19 16 -29 34 -37 13 -47 -105 -48 -107 -2 -111 -1
-111 19 0 29 47 108 76 127 13 8 24 22 24 29 0 31 30 11 56 -36z"/>
<path d="M8893 3452 c-24 -2 -43 -8 -43 -14 0 -6 -10 -8 -25 -4 -24 6 -31 -2
-25 -29 1 -9 8 -101 9 -146 1 -21 29 -33 45 -19 7 5 12 25 11 45 -2 31 1 35
24 35 33 0 56 14 47 29 -4 6 -21 8 -42 5 -18 -3 -35 -2 -35 3 -8 51 -4 56 35
60 22 1 45 -2 53 -9 7 -6 16 -8 20 -4 3 3 1 6 -6 6 -7 0 -10 3 -7 8 11 19 -21
37 -61 34z"/>
<path d="M7350 3440 c0 -5 -10 -10 -22 -10 -33 0 -68 -55 -65 -102 1 -21 5
-38 10 -38 4 0 6 -3 5 -7 -4 -15 27 -53 44 -53 9 0 20 -4 23 -10 3 -5 17 -10
31 -10 33 0 23 16 -15 23 -22 5 -32 14 -40 40 -16 47 -11 104 11 124 20 18 98
29 98 14 0 -10 25 -9 36 2 4 3 1 13 -6 22 -14 17 -110 22 -110 5z"/>
<path d="M8075 3442 c-38 -4 -52 -17 -38 -34 10 -12 9 -116 -1 -126 -7 -6 22
-62 32 -62 19 1 27 19 27 60 0 33 4 45 15 45 23 0 26 19 4 24 -23 4 -34 19
-34 49 0 20 5 22 57 22 41 0 54 3 46 11 -12 12 -58 16 -108 11z"/>
<path d="M8300 3442 c-49 -5 -61 -20 -22 -28 l32 -6 0 -83 c0 -80 6 -95 37
-95 2 0 3 43 1 95 -3 90 -2 95 17 93 12 -2 21 4 23 14 3 18 2 18 -88 10z"/>
<path d="M8560 3440 c-12 -8 -5 -199 8 -212 15 -15 120 -13 150 3 12 7 22 22
23 33 0 20 1 20 8 2 5 -13 10 -16 15 -8 3 6 -6 24 -22 40 -25 26 -27 32 -17
52 14 26 9 65 -11 81 -14 11 -138 19 -154 9z m125 -32 c3 -3 1 -16 -4 -30 -7
-18 -16 -25 -33 -24 -34 2 -45 13 -45 41 0 24 2 25 38 22 22 -2 42 -6 44 -9z
m-4 -140 c-12 -32 -54 -42 -70 -16 -21 34 -14 56 22 60 43 5 61 -11 48 -44z"/>
<path d="M9070 3440 c0 -6 -11 -8 -25 -6 l-26 5 5 -92 c2 -51 5 -97 5 -103 1
-19 127 -38 138 -21 2 4 8 5 13 2 5 -3 14 4 20 15 12 22 8 25 -18 11 -9 -5
-39 -11 -67 -14 -27 -4 -44 -4 -37 -1 15 7 16 34 1 34 -8 0 -8 5 1 15 9 11 9
19 2 28 -8 10 -1 12 34 12 24 0 44 -3 44 -7 0 -5 5 -8 11 -8 8 0 8 4 0 13 -8
10 -7 17 2 27 10 10 9 11 -2 5 -8 -5 -33 -9 -54 -9 -35 -1 -41 2 -42 21 -3 37
11 47 64 47 53 0 59 4 39 24 -15 15 -108 16 -108 2z"/>
<path d="M9254 3441 c-8 -8 -4 -196 4 -209 5 -7 16 -10 26 -6 14 5 16 14 11
45 -8 45 7 52 36 17 11 -11 19 -18 19 -13 0 4 9 -4 21 -19 11 -14 26 -26 34
-26 7 0 16 -6 18 -12 3 -7 4 -1 3 14 0 15 -9 33 -18 40 -23 17 -29 59 -12 83
21 28 17 63 -8 76 -22 12 -125 19 -134 10z m98 -55 c4 -20 0 -25 -21 -29 -14
-3 -26 -5 -27 -4 -1 1 -4 14 -8 30 -6 25 -4 27 23 27 22 0 30 -5 33 -24z"/>
<path d="M9613 3442 c-25 -4 -26 -5 -24 -126 1 -44 6 -85 11 -91 9 -11 76 -11
127 0 36 8 52 31 46 67 -3 18 -6 52 -7 75 0 23 -5 46 -11 52 -16 16 -98 29
-142 23z m105 -36 c6 -6 6 -21 1 -33 -6 -17 -16 -23 -38 -23 -26 0 -30 3 -28
28 1 16 -3 26 -10 25 -7 -2 -10 3 -7 10 6 16 69 10 82 -7z m23 -113 c13 -36 4
-56 -21 -48 -11 4 -20 2 -20 -4 0 -6 -16 -11 -35 -11 -35 0 -36 1 -33 38 4 45
8 48 59 50 34 2 41 -2 50 -25z"/>
<path d="M10110 3438 c-18 -7 -19 -15 -15 -105 2 -54 4 -101 4 -105 1 -5 12
-8 26 -8 24 0 25 3 20 41 -3 22 -2 45 1 50 3 5 28 -11 56 -36 28 -25 54 -45
59 -45 15 0 10 18 -7 28 -21 12 -24 40 -8 86 19 51 18 63 -6 83 -21 18 -95 24
-130 11z m88 -30 c11 -11 17 -48 8 -48 -2 0 -11 -3 -19 -6 -18 -6 -52 39 -42
56 8 14 38 13 53 -2z"/>
<path d="M7524 3428 c-6 -9 5 -177 12 -189 3 -5 14 -9 25 -9 17 0 19 5 14 45
-4 40 -2 44 13 36 9 -5 32 -26 50 -46 22 -25 37 -35 49 -31 14 6 11 12 -16 40
l-32 33 25 28 c27 29 33 59 16 85 -7 11 -28 15 -80 15 -40 0 -74 -3 -76 -7z
m117 -29 c21 -33 3 -59 -36 -55 -27 3 -30 7 -31 38 -2 34 0 35 28 33 17 -2 34
-9 39 -16z"/>
<path d="M7852 3424 c-7 -8 -10 -14 -7 -14 3 0 1 -9 -5 -20 -6 -11 -7 -19 -2
-18 13 4 53 -42 46 -53 -3 -5 -17 -9 -31 -9 -20 0 -24 4 -20 20 3 13 0 20 -8
20 -17 0 -23 -9 -30 -48 -5 -32 3 -40 21 -22 6 6 27 13 46 15 32 4 37 2 42
-21 4 -15 14 -33 22 -41 19 -20 48 -9 39 15 -4 9 -8 24 -10 32 -5 23 -65 138
-78 149 -8 6 -16 4 -25 -5z"/>
<path d="M8405 3420 c4 -6 11 -8 16 -5 14 9 11 15 -7 15 -8 0 -12 -5 -9 -10z"/>
<path d="M9881 3363 c-18 -37 -37 -76 -42 -87 -20 -35 6 -35 37 -1 17 19 28
35 24 35 -16 0 2 38 20 43 14 3 19 -3 24 -26 9 -44 45 -97 66 -97 16 0 17 5 9
41 -12 52 -70 153 -91 157 -10 2 -25 -19 -47 -65z"/>
<path d="M8155 3330 c-3 -5 -1 -10 4 -10 6 0 11 5 11 10 0 6 -2 10 -4 10 -3 0
-8 -4 -11 -10z"/>
<path d="M7770 3246 c0 -14 5 -26 10 -26 6 0 10 9 10 19 0 11 -4 23 -10 26 -6
4 -10 -5 -10 -19z"/>
<path d="M8950 3250 c0 -5 -18 -10 -40 -10 -22 0 -40 -4 -40 -10 0 -15 86 -12
99 3 6 8 8 17 4 20 -10 10 -23 8 -23 -3z"/>
<path d="M8348 3052 c-57 -7 -73 -70 -30 -112 16 -14 36 -29 46 -33 10 -4 20
-16 23 -27 3 -11 10 -20 15 -20 5 0 6 -5 3 -10 -7 -12 -51 -3 -82 16 -30 19
-33 18 -33 -10 0 -32 23 -54 54 -51 83 9 106 27 106 79 0 26 -44 66 -73 66
-15 0 -47 36 -47 51 0 4 12 10 27 14 19 4 34 0 55 -15 l28 -21 0 24 c0 40 -33
57 -92 49z"/>
<path d="M8098 3038 c-7 -3 -16 -4 -21 -1 -12 7 1 -154 14 -178 12 -24 29 -16
29 14 0 36 15 49 50 45 26 -2 33 1 36 17 3 18 -1 20 -35 17 -35 -4 -39 -1 -49
27 -6 17 -8 31 -4 32 4 0 34 0 67 -1 56 -1 59 0 44 15 -17 18 -110 27 -131 13z"/>
<path d="M8489 3045 c0 0 -2 -8 -4 -17 -2 -14 2 -17 18 -13 41 10 49 -7 51
-101 2 -89 2 -89 29 -92 l27 -3 -5 100 -4 100 45 -6 c44 -5 45 -4 35 15 -10
18 -20 20 -101 19 -49 -1 -90 -2 -91 -2z"/>
<path d="M8747 3038 c-25 -14 -21 -40 6 -37 12 1 29 -1 37 -5 21 -9 18 -56 -6
-75 -23 -20 -75 -93 -69 -99 2 -2 31 -4 65 -4 43 -1 65 4 71 13 7 11 0 15 -32
17 -34 3 -39 6 -28 18 6 8 8 14 4 14 -4 0 6 17 22 38 16 20 30 51 32 68 2 27
-2 33 -31 45 -43 18 -51 19 -71 7z"/>
<path d="M8910 3008 c-35 -68 -28 -174 13 -183 60 -13 85 -6 106 27 28 45 31
89 10 134 -22 50 -27 54 -74 58 -31 2 -37 -1 -55 -36z m78 -3 c13 -12 21 -105
10 -105 -5 0 -7 -4 -3 -10 3 -5 3 -21 -1 -35 l-7 -26 -31 30 c-33 32 -36 49
-22 126 6 28 11 33 28 30 11 -3 23 -7 26 -10z"/>
<path d="M9293 3037 c-11 -18 -12 -37 -2 -37 5 0 9 5 9 10 0 13 47 13 55 -1
12 -19 15 -64 6 -79 -16 -24 -65 -1 -69 33 -5 41 -32 35 -32 -8 0 -23 5 -35
14 -35 7 0 25 -9 40 -21 l26 -21 -21 -29 c-30 -43 -1 -38 45 8 61 61 64 127 9
167 -31 23 -70 29 -80 13z"/>
<path d="M9129 3023 c-2 -26 3 -153 7 -180 4 -22 10 -30 20 -26 22 8 20 199
-2 207 -20 8 -24 8 -25 -1z"/>
<path d="M8196 2840 c-22 -14 -24 -19 -12 -23 9 -4 16 -1 16 5 0 7 4 7 13 0 9
-8 16 -6 24 8 17 27 -7 33 -41 10z"/>
</g>
</svg>
