<?xml version="1.0" encoding="UTF-8"?>
<!-- Generator: visioncortex VTracer 0.6.3 -->
<svg version="1.1" xmlns="http://www.w3.org/2000/svg" width="512" height="512">
<path d="M0 0 C165.66 0 331.32 0 502 0 C502 111.54 502 223.08 502 338 C336.34 338 170.68 338 0 338 C0 226.46 0 114.92 0 0 Z " fill="#D52C1E" transform="translate(5,87)"/>
<path d="M0 0 C165.66 0 331.32 0 502 0 C502 111.54 502 223.08 502 338 C336.34 338 170.68 338 0 338 C0 226.46 0 114.92 0 0 Z M4 115 C4 187.27 4 259.54 4 334 C167.02 334 330.04 334 498 334 C498 261.73 498 189.46 498 115 C334.98 115 171.96 115 4 115 Z " fill="#FEFEFE" transform="translate(5,87)"/>
<path d="M0 0 C163.02 0 326.04 0 494 0 C494 35.64 494 71.28 494 108 C331.31 108 168.62 108 1 108 C1 144.3 1 180.6 1 218 C163.69 218 326.38 218 494 218 C494 218.33 494 218.66 494 219 C330.98 219 167.96 219 0 219 C0 146.73 0 74.46 0 0 Z " fill="#264391" transform="translate(9,202)"/>
<path d="M0 0 C165.66 0 331.32 0 502 0 C502 111.54 502 223.08 502 338 C336.34 338 170.68 338 0 338 C0 226.46 0 114.92 0 0 Z M4 4 C4 112.9 4 221.8 4 334 C167.02 334 330.04 334 498 334 C498 225.1 498 116.2 498 4 C334.98 4 171.96 4 4 4 Z " fill="#D5D4D0" transform="translate(5,87)"/>
</svg>
